G75*
%MOIN*%
%OFA0B0*%
%FSLAX25Y25*%
%IPPOS*%
%LPD*%
%AMOC8*
5,1,8,0,0,1.08239X$1,22.5*
%
%ADD10C,0.08200*%
%ADD11C,0.01745*%
%ADD12C,0.01863*%
%ADD13R,0.02217X0.02375*%
%ADD14R,0.03200X0.02600*%
%ADD15R,0.02600X0.03200*%
%ADD16R,0.02670X0.01784*%
%ADD17R,0.01784X0.02670*%
%ADD18R,0.01883X0.01784*%
%ADD19R,0.01784X0.01883*%
%ADD20R,0.01981X0.01883*%
%ADD21R,0.01883X0.01981*%
D10*
X0014867Y0010050D03*
X0014867Y0020050D03*
X0014867Y0030050D03*
X0014867Y0040050D03*
X0014867Y0050050D03*
X0074867Y0050050D03*
X0074867Y0040050D03*
X0074867Y0030050D03*
X0074867Y0020050D03*
X0074867Y0010050D03*
D11*
X0031079Y0014438D03*
X0031079Y0016013D03*
X0029504Y0016013D03*
X0027929Y0016013D03*
X0026354Y0016013D03*
X0026354Y0014438D03*
X0027929Y0014438D03*
X0029504Y0014438D03*
X0029504Y0017587D03*
X0027929Y0017587D03*
X0026354Y0017587D03*
X0026354Y0019162D03*
X0027929Y0019162D03*
X0029504Y0019162D03*
X0031079Y0019162D03*
X0031079Y0017587D03*
D12*
X0064612Y0029931D03*
X0066317Y0030916D03*
X0068021Y0031900D03*
X0066317Y0032884D03*
X0068021Y0033869D03*
X0064612Y0033869D03*
X0064612Y0031900D03*
X0068021Y0029931D03*
D13*
X0027885Y0031519D03*
X0027885Y0033881D03*
X0023948Y0033881D03*
X0023948Y0031519D03*
X0023948Y0027081D03*
X0023948Y0024719D03*
X0027885Y0024719D03*
X0027885Y0027081D03*
D14*
X0036017Y0018200D03*
X0036017Y0014400D03*
X0053317Y0016600D03*
X0053317Y0020400D03*
X0053317Y0023300D03*
X0053317Y0027100D03*
X0060717Y0030300D03*
X0060717Y0034100D03*
D15*
X0046617Y0022700D03*
X0042817Y0022700D03*
X0057617Y0022100D03*
X0061417Y0022100D03*
X0036317Y0011100D03*
X0032517Y0011100D03*
X0032517Y0007500D03*
X0036317Y0007500D03*
X0031017Y0038500D03*
X0027217Y0038500D03*
X0036217Y0042400D03*
X0040017Y0042400D03*
X0040017Y0045900D03*
X0036217Y0045900D03*
X0036217Y0049400D03*
X0040017Y0049400D03*
D16*
X0040290Y0033003D03*
X0040290Y0031034D03*
X0040290Y0029066D03*
X0040290Y0027097D03*
X0049443Y0027097D03*
X0049443Y0029066D03*
X0049443Y0031034D03*
X0049443Y0033003D03*
D17*
X0046835Y0033643D03*
X0044867Y0033643D03*
X0042898Y0033643D03*
X0042898Y0026457D03*
X0044867Y0026457D03*
X0046835Y0026457D03*
D18*
X0032628Y0041847D03*
X0032628Y0043816D03*
X0032628Y0045784D03*
X0032628Y0047753D03*
X0026605Y0047753D03*
X0026605Y0045784D03*
X0026605Y0043816D03*
X0026605Y0041847D03*
D19*
X0028632Y0041788D03*
X0030601Y0041788D03*
X0030601Y0047812D03*
X0028632Y0047812D03*
D20*
X0056516Y0016584D03*
X0056516Y0014616D03*
X0062717Y0014616D03*
X0062717Y0016584D03*
D21*
X0061585Y0018700D03*
X0059617Y0018700D03*
X0057648Y0018700D03*
X0057648Y0012500D03*
X0059617Y0012500D03*
X0061585Y0012500D03*
M02*
