%
M48
M72
T01C0.0100
T02C0.0400
%
T01
X2312Y1130
X2672Y1210
X2952Y1170
X3012Y790
X4022Y1080
X5072Y1660
X5422Y1410
X5962Y1040
X6592Y1370
X5882Y2470
X5872Y2740
X5792Y3030
X5282Y2970
X5902Y3760
X4722Y3920
X4492Y4100
X4252Y4320
X3342Y3860
X2542Y3620
X2182Y3260
X2782Y2930
X2792Y2240
X3022Y2180
X2552Y2190
X2392Y1880
X2342Y1640
X4282Y2010
X6412Y2670
X6682Y2660
X7222Y3510
X3622Y5240
X2422Y4775
X2422Y4380
X2422Y4080
T02
X1487Y1005
X1487Y2005
X1487Y3005
X1487Y4005
X1487Y5005
X7487Y5005
X7487Y4005
X7487Y3005
X7487Y2005
X7487Y1005
M30
