G75*
%MOIN*%
%OFA0B0*%
%FSLAX25Y25*%
%IPPOS*%
%LPD*%
%AMOC8*
5,1,8,0,0,1.08239X$1,22.5*
%
%ADD10C,0.07400*%
%ADD11C,0.00945*%
%ADD12C,0.01063*%
%ADD13R,0.01417X0.01575*%
%ADD14R,0.02400X0.01800*%
%ADD15R,0.01800X0.02400*%
%ADD16R,0.01870X0.00984*%
%ADD17R,0.00984X0.01870*%
%ADD18R,0.01083X0.00984*%
%ADD19R,0.00984X0.01083*%
%ADD20R,0.01181X0.01083*%
%ADD21R,0.01083X0.01181*%
%ADD22C,0.01000*%
%ADD23C,0.01800*%
%ADD24C,0.00600*%
%ADD25C,0.01600*%
D10*
X0014867Y0010050D03*
X0014867Y0020050D03*
X0014867Y0030050D03*
X0014867Y0040050D03*
X0014867Y0050050D03*
X0074867Y0050050D03*
X0074867Y0040050D03*
X0074867Y0030050D03*
X0074867Y0020050D03*
X0074867Y0010050D03*
D11*
X0031079Y0014438D03*
X0031079Y0016013D03*
X0029504Y0016013D03*
X0027929Y0016013D03*
X0026354Y0016013D03*
X0026354Y0014438D03*
X0027929Y0014438D03*
X0029504Y0014438D03*
X0029504Y0017587D03*
X0027929Y0017587D03*
X0026354Y0017587D03*
X0026354Y0019162D03*
X0027929Y0019162D03*
X0029504Y0019162D03*
X0031079Y0019162D03*
X0031079Y0017587D03*
D12*
X0064612Y0029931D03*
X0066317Y0030916D03*
X0068021Y0031900D03*
X0066317Y0032884D03*
X0068021Y0033869D03*
X0064612Y0033869D03*
X0064612Y0031900D03*
X0068021Y0029931D03*
D13*
X0027885Y0031519D03*
X0027885Y0033881D03*
X0023948Y0033881D03*
X0023948Y0031519D03*
X0023948Y0027081D03*
X0023948Y0024719D03*
X0027885Y0024719D03*
X0027885Y0027081D03*
D14*
X0036017Y0018200D03*
X0036017Y0014400D03*
X0053317Y0016600D03*
X0053317Y0020400D03*
X0053317Y0023300D03*
X0053317Y0027100D03*
X0060717Y0030300D03*
X0060717Y0034100D03*
D15*
X0046617Y0022700D03*
X0042817Y0022700D03*
X0057617Y0022100D03*
X0061417Y0022100D03*
X0036317Y0011100D03*
X0032517Y0011100D03*
X0032517Y0007500D03*
X0036317Y0007500D03*
X0031017Y0038500D03*
X0027217Y0038500D03*
X0036217Y0042400D03*
X0040017Y0042400D03*
X0040017Y0045900D03*
X0036217Y0045900D03*
X0036217Y0049400D03*
X0040017Y0049400D03*
D16*
X0040290Y0033003D03*
X0040290Y0031034D03*
X0040290Y0029066D03*
X0040290Y0027097D03*
X0049443Y0027097D03*
X0049443Y0029066D03*
X0049443Y0031034D03*
X0049443Y0033003D03*
D17*
X0046835Y0033643D03*
X0044867Y0033643D03*
X0042898Y0033643D03*
X0042898Y0026457D03*
X0044867Y0026457D03*
X0046835Y0026457D03*
D18*
X0032628Y0041847D03*
X0032628Y0043816D03*
X0032628Y0045784D03*
X0032628Y0047753D03*
X0026605Y0047753D03*
X0026605Y0045784D03*
X0026605Y0043816D03*
X0026605Y0041847D03*
D19*
X0028632Y0041788D03*
X0030601Y0041788D03*
X0030601Y0047812D03*
X0028632Y0047812D03*
D20*
X0056516Y0016584D03*
X0056516Y0014616D03*
X0062717Y0014616D03*
X0062717Y0016584D03*
D21*
X0061585Y0018700D03*
X0059617Y0018700D03*
X0057648Y0018700D03*
X0057648Y0012500D03*
X0059617Y0012500D03*
X0061585Y0012500D03*
D22*
X0061585Y0010931D01*
X0062217Y0010300D01*
X0059617Y0010400D02*
X0059617Y0012500D01*
X0057648Y0012500D02*
X0057648Y0010931D01*
X0057117Y0010400D01*
X0055401Y0014600D02*
X0054217Y0014100D01*
X0055401Y0014600D02*
X0056516Y0014616D01*
X0056516Y0016584D02*
X0053332Y0016584D01*
X0053317Y0016600D01*
X0050717Y0016600D01*
X0057648Y0018700D02*
X0057648Y0022069D01*
X0057617Y0022100D01*
X0058817Y0024700D01*
X0061417Y0022100D02*
X0061585Y0021931D01*
X0061585Y0018700D01*
X0059617Y0018700D02*
X0059617Y0020300D01*
X0061417Y0022100D01*
X0064117Y0026700D02*
X0066317Y0028900D01*
X0066317Y0030916D01*
X0067337Y0032284D02*
X0068021Y0031900D01*
X0067337Y0032284D02*
X0066317Y0032884D01*
X0065596Y0032484D01*
X0064612Y0031900D01*
X0064612Y0033869D01*
X0064612Y0029931D02*
X0061085Y0029931D01*
X0060717Y0030300D01*
X0057917Y0030300D01*
X0054717Y0027100D01*
X0053317Y0027100D01*
X0053314Y0027097D01*
X0049443Y0027097D01*
X0049443Y0029066D02*
X0051782Y0029066D01*
X0052817Y0029700D01*
X0046835Y0026457D02*
X0046835Y0022919D01*
X0046617Y0022700D01*
X0044867Y0024650D01*
X0044867Y0026457D01*
X0042898Y0026457D02*
X0042898Y0022819D01*
X0042817Y0022700D01*
X0042898Y0022819D02*
X0042898Y0020419D01*
X0042817Y0020100D01*
X0036017Y0018200D02*
X0035017Y0017587D01*
X0031079Y0017587D01*
X0029504Y0017587D02*
X0029504Y0016013D01*
X0031079Y0016013D01*
X0032804Y0016013D01*
X0033917Y0014800D01*
X0032517Y0013400D02*
X0032517Y0011100D01*
X0032517Y0007500D01*
X0030817Y0007500D01*
X0030117Y0007900D01*
X0029517Y0011700D02*
X0029504Y0012413D01*
X0029504Y0014438D01*
X0027929Y0014438D02*
X0027929Y0013313D01*
X0026717Y0012100D01*
X0026354Y0014438D02*
X0019354Y0014438D01*
X0018517Y0013600D01*
X0019917Y0015100D01*
X0019917Y0022200D01*
X0022748Y0024631D01*
X0023948Y0024719D01*
X0023948Y0027081D02*
X0022898Y0027081D01*
X0014867Y0020050D01*
X0023417Y0016400D02*
X0024104Y0016013D01*
X0026354Y0016013D01*
X0026354Y0017587D02*
X0026229Y0017587D01*
X0025317Y0017600D01*
X0023917Y0018800D01*
X0026354Y0019162D02*
X0026354Y0021062D01*
X0025717Y0021900D01*
X0025517Y0021900D01*
X0025282Y0022135D01*
X0027917Y0022400D02*
X0027929Y0021387D01*
X0027929Y0019162D01*
X0029504Y0019162D02*
X0029517Y0020875D01*
X0030217Y0021800D01*
X0031079Y0019162D02*
X0033517Y0021600D01*
X0033517Y0025800D01*
X0034814Y0027097D01*
X0040290Y0027097D01*
X0040290Y0029066D02*
X0037482Y0029066D01*
X0037417Y0029000D01*
X0037582Y0031034D02*
X0037517Y0031100D01*
X0037582Y0031034D02*
X0040290Y0031034D01*
X0040290Y0033003D02*
X0037614Y0033003D01*
X0037517Y0033100D01*
X0042898Y0033643D02*
X0042898Y0042519D01*
X0042517Y0043200D01*
X0040017Y0042400D02*
X0039917Y0042300D01*
X0039917Y0040300D01*
X0039217Y0039600D01*
X0035317Y0039600D01*
X0034317Y0040600D01*
X0034317Y0043600D01*
X0034101Y0043816D01*
X0032628Y0043816D01*
X0032628Y0045784D02*
X0035501Y0045784D01*
X0036217Y0045900D01*
X0036217Y0049400D01*
X0033117Y0049400D01*
X0032628Y0048912D01*
X0032628Y0047753D01*
X0036217Y0049400D02*
X0036217Y0052400D01*
X0036217Y0045900D02*
X0036217Y0042400D01*
X0032628Y0041847D02*
X0032628Y0040788D01*
X0033417Y0038600D01*
X0031017Y0038500D02*
X0030601Y0038916D01*
X0030601Y0041788D01*
X0028632Y0041788D02*
X0028632Y0039716D01*
X0027217Y0038500D01*
X0025417Y0036200D02*
X0023948Y0034831D01*
X0023948Y0033881D01*
X0021817Y0032600D02*
X0022917Y0031500D01*
X0023236Y0031519D01*
X0023948Y0031519D01*
X0027885Y0031519D02*
X0027798Y0030319D01*
X0027817Y0029300D01*
X0027885Y0027969D01*
X0027885Y0027081D01*
X0027885Y0024719D01*
X0027885Y0031519D02*
X0027885Y0033881D01*
X0024217Y0040800D02*
X0025169Y0041847D01*
X0026605Y0041847D01*
X0026605Y0043816D02*
X0024232Y0043816D01*
X0024217Y0043800D01*
X0024217Y0047753D02*
X0026605Y0047753D01*
X0044867Y0040950D02*
X0044917Y0041000D01*
X0044867Y0040950D02*
X0044867Y0033643D01*
X0046835Y0033643D02*
X0046835Y0038819D01*
X0047217Y0039200D01*
X0059017Y0037600D02*
X0061567Y0040050D01*
X0074867Y0040050D01*
X0068021Y0029931D02*
X0068021Y0027895D01*
X0066817Y0026600D01*
X0074867Y0020050D02*
X0070901Y0016584D01*
X0062717Y0016584D01*
X0062717Y0014616D02*
X0065001Y0014616D01*
X0065917Y0013700D01*
X0032517Y0013400D02*
X0031479Y0014438D01*
X0031079Y0014438D01*
X0018517Y0013600D02*
X0017217Y0012400D01*
X0014867Y0010050D01*
D23*
X0023117Y0011300D03*
X0026717Y0012100D03*
X0029517Y0011700D03*
X0030117Y0007900D03*
X0040217Y0010800D03*
X0050717Y0016600D03*
X0054217Y0014100D03*
X0059617Y0010400D03*
X0065917Y0013700D03*
X0058817Y0024700D03*
X0058717Y0027400D03*
X0057917Y0030300D03*
X0052817Y0029700D03*
X0059017Y0037600D03*
X0047217Y0039200D03*
X0044917Y0041000D03*
X0042517Y0043200D03*
X0033417Y0038600D03*
X0025417Y0036200D03*
X0021817Y0032600D03*
X0027817Y0029300D03*
X0027917Y0022400D03*
X0030217Y0021800D03*
X0025517Y0021900D03*
X0023917Y0018800D03*
X0023417Y0016400D03*
X0042817Y0020100D03*
X0064117Y0026700D03*
X0066817Y0026600D03*
X0072217Y0035100D03*
X0036217Y0052400D03*
X0024217Y0047753D03*
X0024217Y0043800D03*
X0024217Y0040800D03*
D24*
X0022605Y0042300D02*
X0022017Y0041711D01*
X0022017Y0039889D01*
X0023305Y0038600D01*
X0025017Y0038600D01*
X0025017Y0038400D01*
X0024505Y0038400D01*
X0023217Y0037111D01*
X0023217Y0036631D01*
X0023203Y0036631D01*
X0022698Y0036127D01*
X0022176Y0035640D01*
X0022174Y0035603D01*
X0022148Y0035577D01*
X0022148Y0035416D01*
X0021939Y0035207D01*
X0021939Y0034800D01*
X0020905Y0034800D01*
X0019617Y0033511D01*
X0019617Y0031689D01*
X0020905Y0030400D01*
X0021445Y0030400D01*
X0021682Y0030190D01*
X0022171Y0029700D01*
X0022233Y0029700D01*
X0022279Y0029659D01*
X0022463Y0029670D01*
X0022701Y0029431D01*
X0025195Y0029431D01*
X0025617Y0029853D01*
X0025617Y0028747D01*
X0025195Y0029168D01*
X0022701Y0029168D01*
X0022447Y0028915D01*
X0022273Y0028927D01*
X0022221Y0028881D01*
X0022152Y0028881D01*
X0021667Y0028396D01*
X0017208Y0024492D01*
X0015861Y0025050D01*
X0017699Y0025811D01*
X0019105Y0027218D01*
X0019867Y0029055D01*
X0019867Y0031045D01*
X0019105Y0032882D01*
X0017699Y0034289D01*
X0015861Y0035050D01*
X0017699Y0035811D01*
X0019105Y0037218D01*
X0019867Y0039055D01*
X0019867Y0041045D01*
X0019105Y0042882D01*
X0017699Y0044289D01*
X0015861Y0045050D01*
X0013872Y0045050D01*
X0012034Y0044289D01*
X0011417Y0043671D01*
X0011417Y0053500D01*
X0034205Y0053500D01*
X0034017Y0053311D01*
X0034017Y0051489D01*
X0034192Y0051314D01*
X0034078Y0051200D01*
X0032371Y0051200D01*
X0031317Y0050146D01*
X0030828Y0049657D01*
X0030828Y0049653D01*
X0027602Y0049653D01*
X0027549Y0049600D01*
X0025481Y0049600D01*
X0025128Y0049953D01*
X0023305Y0049953D01*
X0022017Y0048664D01*
X0022017Y0046841D01*
X0023082Y0045776D01*
X0022017Y0044711D01*
X0022017Y0042889D01*
X0022605Y0042300D01*
X0022399Y0042506D02*
X0019261Y0042506D01*
X0019509Y0041908D02*
X0022213Y0041908D01*
X0022017Y0041309D02*
X0019757Y0041309D01*
X0019867Y0040711D02*
X0022017Y0040711D01*
X0022017Y0040112D02*
X0019867Y0040112D01*
X0019867Y0039514D02*
X0022392Y0039514D01*
X0022990Y0038915D02*
X0019809Y0038915D01*
X0019561Y0038317D02*
X0024422Y0038317D01*
X0023824Y0037718D02*
X0019313Y0037718D01*
X0019007Y0037120D02*
X0023225Y0037120D01*
X0023092Y0036521D02*
X0018409Y0036521D01*
X0017810Y0035923D02*
X0022479Y0035923D01*
X0022057Y0035324D02*
X0016523Y0035324D01*
X0016644Y0034726D02*
X0020831Y0034726D01*
X0020232Y0034127D02*
X0017861Y0034127D01*
X0018459Y0033529D02*
X0019634Y0033529D01*
X0019617Y0032930D02*
X0019058Y0032930D01*
X0019334Y0032332D02*
X0019617Y0032332D01*
X0019617Y0031733D02*
X0019581Y0031733D01*
X0019829Y0031134D02*
X0020171Y0031134D01*
X0019867Y0030536D02*
X0020769Y0030536D01*
X0019867Y0029937D02*
X0021934Y0029937D01*
X0022012Y0028740D02*
X0019736Y0028740D01*
X0019867Y0029339D02*
X0025617Y0029339D01*
X0029894Y0030334D02*
X0029894Y0035207D01*
X0029132Y0035968D01*
X0027617Y0035968D01*
X0027617Y0036000D01*
X0028655Y0036000D01*
X0029417Y0036762D01*
X0029417Y0037954D01*
X0029857Y0038395D01*
X0030371Y0038836D01*
X0030377Y0038914D01*
X0030432Y0038970D01*
X0030432Y0039647D01*
X0030459Y0040000D01*
X0030871Y0040000D01*
X0031071Y0039800D01*
X0031217Y0039396D01*
X0031217Y0037689D01*
X0032505Y0036400D01*
X0034328Y0036400D01*
X0035617Y0037689D01*
X0035617Y0039511D01*
X0035228Y0039900D01*
X0037655Y0039900D01*
X0038417Y0040662D01*
X0038417Y0044138D01*
X0038405Y0044150D01*
X0038417Y0044162D01*
X0038417Y0047638D01*
X0038405Y0047650D01*
X0038417Y0047662D01*
X0038417Y0051138D01*
X0038242Y0051314D01*
X0038417Y0051489D01*
X0038417Y0053311D01*
X0038228Y0053500D01*
X0071246Y0053500D01*
X0070628Y0052882D01*
X0069867Y0051045D01*
X0069867Y0049055D01*
X0070628Y0047218D01*
X0072034Y0045811D01*
X0073872Y0045050D01*
X0072034Y0044289D01*
X0070628Y0042882D01*
X0070200Y0041850D01*
X0061585Y0041850D01*
X0060857Y0041865D01*
X0060842Y0041850D01*
X0060821Y0041850D01*
X0060307Y0041336D01*
X0058708Y0039800D01*
X0058105Y0039800D01*
X0056817Y0038511D01*
X0056817Y0036689D01*
X0058105Y0035400D01*
X0059928Y0035400D01*
X0061217Y0036689D01*
X0061217Y0037218D01*
X0062291Y0038250D01*
X0070200Y0038250D01*
X0070628Y0037218D01*
X0072034Y0035811D01*
X0073872Y0035050D01*
X0072034Y0034289D01*
X0070628Y0032882D01*
X0069867Y0031045D01*
X0069867Y0029055D01*
X0070628Y0027218D01*
X0072034Y0025811D01*
X0073872Y0025050D01*
X0072034Y0024289D01*
X0070628Y0022882D01*
X0069867Y0021045D01*
X0069867Y0019055D01*
X0070145Y0018384D01*
X0064217Y0018384D01*
X0064217Y0019790D01*
X0063807Y0020200D01*
X0059655Y0020200D01*
X0059817Y0020362D01*
X0059817Y0022571D01*
X0059832Y0022604D01*
X0061017Y0023789D01*
X0061017Y0025611D01*
X0059728Y0026900D01*
X0057905Y0026900D01*
X0056617Y0025611D01*
X0056617Y0024600D01*
X0056178Y0024600D01*
X0055417Y0023838D01*
X0055417Y0020362D01*
X0055578Y0020200D01*
X0055427Y0020200D01*
X0055017Y0019790D01*
X0055017Y0018800D01*
X0049805Y0018800D01*
X0048517Y0017511D01*
X0048517Y0015689D01*
X0049805Y0014400D01*
X0052017Y0014400D01*
X0052017Y0013189D01*
X0053305Y0011900D01*
X0055017Y0011900D01*
X0055017Y0011510D01*
X0055427Y0011100D01*
X0057417Y0011100D01*
X0057417Y0009489D01*
X0058705Y0008200D01*
X0060528Y0008200D01*
X0061817Y0009489D01*
X0061817Y0011100D01*
X0063807Y0011100D01*
X0064217Y0011510D01*
X0064217Y0012289D01*
X0065005Y0011500D01*
X0066828Y0011500D01*
X0068117Y0012789D01*
X0068117Y0014611D01*
X0067944Y0014784D01*
X0070840Y0014784D01*
X0071524Y0014738D01*
X0071577Y0014784D01*
X0071646Y0014784D01*
X0072131Y0015269D01*
X0072521Y0015610D01*
X0073872Y0015050D01*
X0072034Y0014289D01*
X0070628Y0012882D01*
X0069867Y0011045D01*
X0069867Y0009055D01*
X0070628Y0007218D01*
X0071246Y0006600D01*
X0034717Y0006600D01*
X0034717Y0009238D01*
X0034655Y0009300D01*
X0034717Y0009362D01*
X0034717Y0012838D01*
X0034317Y0013238D01*
X0034317Y0014146D01*
X0033262Y0015200D01*
X0032675Y0015787D01*
X0034803Y0015787D01*
X0035321Y0015663D01*
X0035524Y0015787D01*
X0035762Y0015787D01*
X0035975Y0016000D01*
X0037755Y0016000D01*
X0038517Y0016762D01*
X0038517Y0019638D01*
X0037755Y0020400D01*
X0034862Y0020400D01*
X0035317Y0020854D01*
X0035317Y0025054D01*
X0035559Y0025297D01*
X0038117Y0025297D01*
X0038117Y0024810D01*
X0038527Y0024400D01*
X0040617Y0024400D01*
X0040617Y0019189D01*
X0041905Y0017900D01*
X0043728Y0017900D01*
X0045017Y0019189D01*
X0045017Y0024400D01*
X0051207Y0024400D01*
X0051617Y0024810D01*
X0051617Y0024900D01*
X0055055Y0024900D01*
X0055455Y0025300D01*
X0055462Y0025300D01*
X0058262Y0028100D01*
X0058828Y0028100D01*
X0058903Y0028175D01*
X0058978Y0028100D01*
X0062405Y0028100D01*
X0061917Y0027611D01*
X0061917Y0025789D01*
X0063205Y0024500D01*
X0065028Y0024500D01*
X0065417Y0024889D01*
X0065905Y0024400D01*
X0067728Y0024400D01*
X0069017Y0025689D01*
X0069017Y0026322D01*
X0069317Y0026646D01*
X0069821Y0027150D01*
X0069821Y0027188D01*
X0069847Y0027215D01*
X0069821Y0027928D01*
X0069821Y0029141D01*
X0069853Y0029173D01*
X0069853Y0030690D01*
X0068780Y0031763D01*
X0068060Y0031763D01*
X0067075Y0032747D01*
X0065558Y0032747D01*
X0064574Y0031763D01*
X0063853Y0031763D01*
X0063822Y0031731D01*
X0063217Y0031731D01*
X0063217Y0031738D01*
X0062455Y0032500D01*
X0058978Y0032500D01*
X0058903Y0032425D01*
X0058828Y0032500D01*
X0057005Y0032500D01*
X0055717Y0031211D01*
X0055717Y0030646D01*
X0055017Y0029946D01*
X0055017Y0030611D01*
X0053728Y0031900D01*
X0051905Y0031900D01*
X0051678Y0031673D01*
X0051678Y0034033D01*
X0051617Y0034095D01*
X0051617Y0035390D01*
X0051207Y0035800D01*
X0048635Y0035800D01*
X0048635Y0037507D01*
X0049417Y0038289D01*
X0049417Y0040111D01*
X0048128Y0041400D01*
X0047117Y0041400D01*
X0047117Y0041911D01*
X0045828Y0043200D01*
X0044717Y0043200D01*
X0044717Y0044111D01*
X0043428Y0045400D01*
X0041605Y0045400D01*
X0040317Y0044111D01*
X0040317Y0042289D01*
X0041098Y0041507D01*
X0041098Y0035800D01*
X0038527Y0035800D01*
X0038117Y0035390D01*
X0038117Y0028897D01*
X0034068Y0028897D01*
X0032771Y0027600D01*
X0031717Y0026546D01*
X0031717Y0023411D01*
X0031128Y0024000D01*
X0029894Y0024000D01*
X0029894Y0028266D01*
X0030017Y0028389D01*
X0030017Y0030211D01*
X0029894Y0030334D01*
X0029894Y0030536D02*
X0038117Y0030536D01*
X0038117Y0031134D02*
X0029894Y0031134D01*
X0029894Y0031733D02*
X0038117Y0031733D01*
X0038117Y0032332D02*
X0029894Y0032332D01*
X0029894Y0032930D02*
X0038117Y0032930D01*
X0038117Y0033529D02*
X0029894Y0033529D01*
X0029894Y0034127D02*
X0038117Y0034127D01*
X0038117Y0034726D02*
X0029894Y0034726D01*
X0029777Y0035324D02*
X0038117Y0035324D01*
X0041098Y0037120D02*
X0035048Y0037120D01*
X0035617Y0037718D02*
X0041098Y0037718D01*
X0041098Y0038317D02*
X0035617Y0038317D01*
X0035617Y0038915D02*
X0041098Y0038915D01*
X0041098Y0039514D02*
X0035614Y0039514D01*
X0037867Y0040112D02*
X0041098Y0040112D01*
X0041098Y0040711D02*
X0038417Y0040711D01*
X0038417Y0041309D02*
X0041098Y0041309D01*
X0040698Y0041908D02*
X0038417Y0041908D01*
X0038417Y0042506D02*
X0040317Y0042506D01*
X0040317Y0043105D02*
X0038417Y0043105D01*
X0038417Y0043703D02*
X0040317Y0043703D01*
X0040507Y0044302D02*
X0038417Y0044302D01*
X0038417Y0044900D02*
X0041106Y0044900D01*
X0038417Y0045499D02*
X0072789Y0045499D01*
X0073511Y0044900D02*
X0043928Y0044900D01*
X0044526Y0044302D02*
X0072066Y0044302D01*
X0071449Y0043703D02*
X0044717Y0043703D01*
X0045923Y0043105D02*
X0070850Y0043105D01*
X0070472Y0042506D02*
X0046522Y0042506D01*
X0047117Y0041908D02*
X0070224Y0041908D01*
X0073872Y0045050D02*
X0075861Y0045050D01*
X0077699Y0044289D01*
X0078317Y0043671D01*
X0078317Y0046429D01*
X0077699Y0045811D01*
X0075861Y0045050D01*
X0073872Y0045050D01*
X0071748Y0046097D02*
X0038417Y0046097D01*
X0038417Y0046696D02*
X0071150Y0046696D01*
X0070596Y0047294D02*
X0038417Y0047294D01*
X0038417Y0047893D02*
X0070348Y0047893D01*
X0070100Y0048491D02*
X0038417Y0048491D01*
X0038417Y0049090D02*
X0069867Y0049090D01*
X0069867Y0049688D02*
X0038417Y0049688D01*
X0038417Y0050287D02*
X0069867Y0050287D01*
X0069867Y0050885D02*
X0038417Y0050885D01*
X0038412Y0051484D02*
X0070049Y0051484D01*
X0070297Y0052082D02*
X0038417Y0052082D01*
X0038417Y0052681D02*
X0070544Y0052681D01*
X0071025Y0053279D02*
X0038417Y0053279D01*
X0034017Y0053279D02*
X0011417Y0053279D01*
X0011417Y0052681D02*
X0034017Y0052681D01*
X0034017Y0052082D02*
X0011417Y0052082D01*
X0011417Y0051484D02*
X0034021Y0051484D01*
X0032056Y0050885D02*
X0011417Y0050885D01*
X0011417Y0050287D02*
X0031458Y0050287D01*
X0030859Y0049688D02*
X0025392Y0049688D01*
X0023041Y0049688D02*
X0011417Y0049688D01*
X0011417Y0049090D02*
X0022442Y0049090D01*
X0022017Y0048491D02*
X0011417Y0048491D01*
X0011417Y0047893D02*
X0022017Y0047893D01*
X0022017Y0047294D02*
X0011417Y0047294D01*
X0011417Y0046696D02*
X0022162Y0046696D01*
X0022761Y0046097D02*
X0011417Y0046097D01*
X0011417Y0045499D02*
X0022804Y0045499D01*
X0022206Y0044900D02*
X0016223Y0044900D01*
X0017668Y0044302D02*
X0022017Y0044302D01*
X0022017Y0043703D02*
X0018284Y0043703D01*
X0018883Y0043105D02*
X0022017Y0043105D01*
X0029779Y0038317D02*
X0031217Y0038317D01*
X0031217Y0038915D02*
X0030377Y0038915D01*
X0030432Y0039514D02*
X0031174Y0039514D01*
X0031217Y0037718D02*
X0029417Y0037718D01*
X0029417Y0037120D02*
X0031786Y0037120D01*
X0032384Y0036521D02*
X0029176Y0036521D01*
X0029178Y0035923D02*
X0041098Y0035923D01*
X0041098Y0036521D02*
X0034449Y0036521D01*
X0038117Y0029937D02*
X0030017Y0029937D01*
X0030017Y0029339D02*
X0038117Y0029339D01*
X0033912Y0028740D02*
X0030017Y0028740D01*
X0029894Y0028142D02*
X0033313Y0028142D01*
X0032715Y0027543D02*
X0029894Y0027543D01*
X0029894Y0026945D02*
X0032116Y0026945D01*
X0031717Y0026346D02*
X0029894Y0026346D01*
X0029894Y0025748D02*
X0031717Y0025748D01*
X0031717Y0025149D02*
X0029894Y0025149D01*
X0029894Y0024551D02*
X0031717Y0024551D01*
X0031717Y0023952D02*
X0031176Y0023952D01*
X0035317Y0023952D02*
X0040617Y0023952D01*
X0040617Y0023354D02*
X0035317Y0023354D01*
X0035317Y0022755D02*
X0040617Y0022755D01*
X0040617Y0022157D02*
X0035317Y0022157D01*
X0035317Y0021558D02*
X0040617Y0021558D01*
X0040617Y0020960D02*
X0035317Y0020960D01*
X0037794Y0020361D02*
X0040617Y0020361D01*
X0040617Y0019763D02*
X0038392Y0019763D01*
X0038517Y0019164D02*
X0040641Y0019164D01*
X0041240Y0018566D02*
X0038517Y0018566D01*
X0038517Y0017967D02*
X0041838Y0017967D01*
X0043795Y0017967D02*
X0048973Y0017967D01*
X0048517Y0017369D02*
X0038517Y0017369D01*
X0038517Y0016770D02*
X0048517Y0016770D01*
X0048517Y0016172D02*
X0037927Y0016172D01*
X0034086Y0014376D02*
X0052017Y0014376D01*
X0052017Y0013778D02*
X0034317Y0013778D01*
X0034376Y0013179D02*
X0052026Y0013179D01*
X0052625Y0012581D02*
X0034717Y0012581D01*
X0034717Y0011982D02*
X0053223Y0011982D01*
X0055143Y0011384D02*
X0034717Y0011384D01*
X0034717Y0010785D02*
X0057417Y0010785D01*
X0057417Y0010187D02*
X0034717Y0010187D01*
X0034717Y0009588D02*
X0057417Y0009588D01*
X0057916Y0008990D02*
X0034717Y0008990D01*
X0034717Y0008391D02*
X0058514Y0008391D01*
X0060719Y0008391D02*
X0070142Y0008391D01*
X0070390Y0007793D02*
X0034717Y0007793D01*
X0034717Y0007194D02*
X0070652Y0007194D01*
X0069894Y0008990D02*
X0061318Y0008990D01*
X0061817Y0009588D02*
X0069867Y0009588D01*
X0069867Y0010187D02*
X0061817Y0010187D01*
X0061817Y0010785D02*
X0069867Y0010785D01*
X0070007Y0011384D02*
X0064090Y0011384D01*
X0064217Y0011982D02*
X0064523Y0011982D01*
X0067310Y0011982D02*
X0070255Y0011982D01*
X0070503Y0012581D02*
X0067909Y0012581D01*
X0068117Y0013179D02*
X0070925Y0013179D01*
X0071523Y0013778D02*
X0068117Y0013778D01*
X0068117Y0014376D02*
X0072245Y0014376D01*
X0071837Y0014975D02*
X0073690Y0014975D01*
X0073872Y0015050D02*
X0075861Y0015050D01*
X0077699Y0014289D01*
X0078317Y0013671D01*
X0078317Y0016429D01*
X0077699Y0015811D01*
X0075861Y0015050D01*
X0073872Y0015050D01*
X0072609Y0015573D02*
X0072479Y0015573D01*
X0076043Y0014975D02*
X0078317Y0014975D01*
X0078317Y0015573D02*
X0077124Y0015573D01*
X0078059Y0016172D02*
X0078317Y0016172D01*
X0078317Y0014376D02*
X0077488Y0014376D01*
X0078210Y0013778D02*
X0078317Y0013778D01*
X0070069Y0018566D02*
X0064217Y0018566D01*
X0064217Y0019164D02*
X0069867Y0019164D01*
X0069867Y0019763D02*
X0064217Y0019763D01*
X0059816Y0020361D02*
X0069867Y0020361D01*
X0069867Y0020960D02*
X0059817Y0020960D01*
X0059817Y0021558D02*
X0070079Y0021558D01*
X0070327Y0022157D02*
X0059817Y0022157D01*
X0059983Y0022755D02*
X0070575Y0022755D01*
X0071099Y0023354D02*
X0060582Y0023354D01*
X0061017Y0023952D02*
X0071698Y0023952D01*
X0072667Y0024551D02*
X0067879Y0024551D01*
X0068477Y0025149D02*
X0073632Y0025149D01*
X0073872Y0025050D02*
X0075861Y0025050D01*
X0077699Y0024289D01*
X0078317Y0023671D01*
X0078317Y0026429D01*
X0077699Y0025811D01*
X0075861Y0025050D01*
X0073872Y0025050D01*
X0072187Y0025748D02*
X0069017Y0025748D01*
X0069039Y0026346D02*
X0071499Y0026346D01*
X0070901Y0026945D02*
X0069617Y0026945D01*
X0069835Y0027543D02*
X0070493Y0027543D01*
X0070245Y0028142D02*
X0069821Y0028142D01*
X0069821Y0028740D02*
X0069997Y0028740D01*
X0069867Y0029339D02*
X0069853Y0029339D01*
X0069853Y0029937D02*
X0069867Y0029937D01*
X0069853Y0030536D02*
X0069867Y0030536D01*
X0069904Y0031134D02*
X0069408Y0031134D01*
X0068810Y0031733D02*
X0070152Y0031733D01*
X0070400Y0032332D02*
X0067491Y0032332D01*
X0065142Y0032332D02*
X0062624Y0032332D01*
X0063217Y0031733D02*
X0063823Y0031733D01*
X0060451Y0035923D02*
X0071923Y0035923D01*
X0071324Y0036521D02*
X0061049Y0036521D01*
X0061217Y0037120D02*
X0070726Y0037120D01*
X0070421Y0037718D02*
X0061738Y0037718D01*
X0059033Y0040112D02*
X0049416Y0040112D01*
X0049417Y0039514D02*
X0057819Y0039514D01*
X0057221Y0038915D02*
X0049417Y0038915D01*
X0049417Y0038317D02*
X0056817Y0038317D01*
X0056817Y0037718D02*
X0048846Y0037718D01*
X0048635Y0037120D02*
X0056817Y0037120D01*
X0056984Y0036521D02*
X0048635Y0036521D01*
X0048635Y0035923D02*
X0057583Y0035923D01*
X0056837Y0032332D02*
X0051678Y0032332D01*
X0051678Y0032930D02*
X0070676Y0032930D01*
X0071274Y0033529D02*
X0051678Y0033529D01*
X0051617Y0034127D02*
X0071873Y0034127D01*
X0073089Y0034726D02*
X0051617Y0034726D01*
X0051617Y0035324D02*
X0073210Y0035324D01*
X0073872Y0035050D02*
X0075861Y0035050D01*
X0077699Y0034289D01*
X0078317Y0033671D01*
X0078317Y0036429D01*
X0077699Y0035811D01*
X0075861Y0035050D01*
X0073872Y0035050D01*
X0076523Y0035324D02*
X0078317Y0035324D01*
X0078317Y0034726D02*
X0076644Y0034726D01*
X0077861Y0034127D02*
X0078317Y0034127D01*
X0078317Y0035923D02*
X0077810Y0035923D01*
X0078284Y0043703D02*
X0078317Y0043703D01*
X0078317Y0044302D02*
X0077668Y0044302D01*
X0078317Y0044900D02*
X0076223Y0044900D01*
X0076945Y0045499D02*
X0078317Y0045499D01*
X0078317Y0046097D02*
X0077985Y0046097D01*
X0060279Y0041309D02*
X0048219Y0041309D01*
X0048817Y0040711D02*
X0059656Y0040711D01*
X0056238Y0031733D02*
X0053895Y0031733D01*
X0054493Y0031134D02*
X0055717Y0031134D01*
X0055607Y0030536D02*
X0055017Y0030536D01*
X0051738Y0031733D02*
X0051678Y0031733D01*
X0057706Y0027543D02*
X0061917Y0027543D01*
X0061917Y0026945D02*
X0057107Y0026945D01*
X0057352Y0026346D02*
X0056509Y0026346D01*
X0056753Y0025748D02*
X0055910Y0025748D01*
X0055305Y0025149D02*
X0056617Y0025149D01*
X0056129Y0024551D02*
X0051357Y0024551D01*
X0055531Y0023952D02*
X0045017Y0023952D01*
X0045017Y0023354D02*
X0055417Y0023354D01*
X0055417Y0022755D02*
X0045017Y0022755D01*
X0045017Y0022157D02*
X0055417Y0022157D01*
X0055417Y0021558D02*
X0045017Y0021558D01*
X0045017Y0020960D02*
X0055417Y0020960D01*
X0055417Y0020361D02*
X0045017Y0020361D01*
X0045017Y0019763D02*
X0055017Y0019763D01*
X0055017Y0019164D02*
X0044992Y0019164D01*
X0044394Y0018566D02*
X0049571Y0018566D01*
X0048632Y0015573D02*
X0032889Y0015573D01*
X0033488Y0014975D02*
X0049231Y0014975D01*
X0038376Y0024551D02*
X0035317Y0024551D01*
X0035412Y0025149D02*
X0038117Y0025149D01*
X0021377Y0028142D02*
X0019488Y0028142D01*
X0019240Y0027543D02*
X0020693Y0027543D01*
X0020010Y0026945D02*
X0018833Y0026945D01*
X0019326Y0026346D02*
X0018234Y0026346D01*
X0018642Y0025748D02*
X0017546Y0025748D01*
X0017959Y0025149D02*
X0016101Y0025149D01*
X0015861Y0025050D02*
X0013872Y0025050D01*
X0012034Y0025811D01*
X0011417Y0026429D01*
X0011417Y0023671D01*
X0012034Y0024289D01*
X0013872Y0025050D01*
X0015861Y0025050D01*
X0017066Y0024551D02*
X0017275Y0024551D01*
X0013632Y0025149D02*
X0011417Y0025149D01*
X0011417Y0024551D02*
X0012667Y0024551D01*
X0011698Y0023952D02*
X0011417Y0023952D01*
X0011417Y0025748D02*
X0012187Y0025748D01*
X0011499Y0026346D02*
X0011417Y0026346D01*
X0011417Y0033671D02*
X0011417Y0036429D01*
X0012034Y0035811D01*
X0013872Y0035050D01*
X0015861Y0035050D01*
X0013872Y0035050D01*
X0012034Y0034289D01*
X0011417Y0033671D01*
X0011417Y0034127D02*
X0011873Y0034127D01*
X0011417Y0034726D02*
X0013089Y0034726D01*
X0013210Y0035324D02*
X0011417Y0035324D01*
X0011417Y0035923D02*
X0011923Y0035923D01*
X0011449Y0043703D02*
X0011417Y0043703D01*
X0011417Y0044302D02*
X0012066Y0044302D01*
X0011417Y0044900D02*
X0013511Y0044900D01*
X0058870Y0028142D02*
X0058936Y0028142D01*
X0060282Y0026346D02*
X0061917Y0026346D01*
X0061957Y0025748D02*
X0060880Y0025748D01*
X0061017Y0025149D02*
X0062556Y0025149D01*
X0063155Y0024551D02*
X0061017Y0024551D01*
X0065079Y0024551D02*
X0065755Y0024551D01*
X0076101Y0025149D02*
X0078317Y0025149D01*
X0078317Y0024551D02*
X0077066Y0024551D01*
X0078035Y0023952D02*
X0078317Y0023952D01*
X0078317Y0025748D02*
X0077546Y0025748D01*
X0078234Y0026346D02*
X0078317Y0026346D01*
X0028605Y0009500D02*
X0027917Y0008811D01*
X0027917Y0006989D01*
X0028305Y0006600D01*
X0018488Y0006600D01*
X0019105Y0007218D01*
X0019867Y0009055D01*
X0019867Y0011045D01*
X0019475Y0011989D01*
X0019787Y0012323D01*
X0020128Y0012638D01*
X0024517Y0012638D01*
X0024517Y0011189D01*
X0025805Y0009900D01*
X0027628Y0009900D01*
X0027917Y0010189D01*
X0028605Y0009500D01*
X0028605Y0009500D01*
X0028517Y0009588D02*
X0019867Y0009588D01*
X0019867Y0010187D02*
X0025519Y0010187D01*
X0024920Y0010785D02*
X0019867Y0010785D01*
X0019726Y0011384D02*
X0024517Y0011384D01*
X0024517Y0011982D02*
X0019478Y0011982D01*
X0020066Y0012581D02*
X0024517Y0012581D01*
X0027915Y0010187D02*
X0027919Y0010187D01*
X0028095Y0008990D02*
X0019839Y0008990D01*
X0019591Y0008391D02*
X0027917Y0008391D01*
X0027917Y0007793D02*
X0019344Y0007793D01*
X0019082Y0007194D02*
X0027917Y0007194D01*
D25*
X0014867Y0040050D02*
X0016464Y0041647D01*
M02*
