G75*
%MOIN*%
%OFA0B0*%
%FSLAX25Y25*%
%IPPOS*%
%LPD*%
%AMOC8*
5,1,8,0,0,1.08239X$1,22.5*
%
%ADD10C,0.06000*%
%ADD11C,0.01800*%
%ADD12C,0.00600*%
%ADD13C,0.01000*%
D10*
X0014867Y0010050D03*
X0014867Y0020050D03*
X0014867Y0030050D03*
X0014867Y0040050D03*
X0014867Y0050050D03*
X0074867Y0050050D03*
X0074867Y0040050D03*
X0074867Y0030050D03*
X0074867Y0020050D03*
X0074867Y0010050D03*
D11*
X0065917Y0013700D03*
X0059617Y0010400D03*
X0054217Y0014100D03*
X0050717Y0016600D03*
X0042817Y0020100D03*
X0030217Y0021800D03*
X0027917Y0022400D03*
X0025517Y0021900D03*
X0023917Y0018800D03*
X0023417Y0016400D03*
X0026717Y0012100D03*
X0029517Y0011700D03*
X0030117Y0007900D03*
X0023117Y0011300D03*
X0040217Y0010800D03*
X0058817Y0024700D03*
X0058717Y0027400D03*
X0057917Y0030300D03*
X0052817Y0029700D03*
X0059017Y0037600D03*
X0047217Y0039200D03*
X0044917Y0041000D03*
X0042517Y0043200D03*
X0033417Y0038600D03*
X0025417Y0036200D03*
X0021817Y0032600D03*
X0027817Y0029300D03*
X0024217Y0040800D03*
X0024217Y0043800D03*
X0024217Y0047753D03*
X0036217Y0052400D03*
X0072217Y0035100D03*
X0066817Y0026600D03*
X0064117Y0026700D03*
D12*
X0062447Y0028142D02*
X0060917Y0028142D01*
X0060917Y0028311D02*
X0059628Y0029600D01*
X0057805Y0029600D01*
X0056517Y0028311D01*
X0056517Y0026489D01*
X0057805Y0025200D01*
X0059628Y0025200D01*
X0060917Y0026489D01*
X0060917Y0028311D01*
X0060487Y0028740D02*
X0063046Y0028740D01*
X0063205Y0028900D02*
X0061917Y0027611D01*
X0061917Y0025789D01*
X0063205Y0024500D01*
X0065028Y0024500D01*
X0065417Y0024889D01*
X0065905Y0024400D01*
X0067728Y0024400D01*
X0069017Y0025689D01*
X0069017Y0027511D01*
X0067728Y0028800D01*
X0065905Y0028800D01*
X0065517Y0028411D01*
X0065028Y0028900D01*
X0063205Y0028900D01*
X0061917Y0027543D02*
X0060917Y0027543D01*
X0060917Y0026945D02*
X0061917Y0026945D01*
X0061917Y0026346D02*
X0060774Y0026346D01*
X0060176Y0025748D02*
X0061957Y0025748D01*
X0062556Y0025149D02*
X0012117Y0025149D01*
X0012117Y0024551D02*
X0026956Y0024551D01*
X0027005Y0024600D02*
X0026467Y0024061D01*
X0026428Y0024100D01*
X0024605Y0024100D01*
X0023317Y0022811D01*
X0023317Y0021000D01*
X0023005Y0021000D01*
X0021717Y0019711D01*
X0021717Y0017889D01*
X0021755Y0017850D01*
X0021217Y0017311D01*
X0021217Y0015489D01*
X0022505Y0014200D01*
X0024328Y0014200D01*
X0025617Y0015489D01*
X0025617Y0017311D01*
X0025578Y0017350D01*
X0026117Y0017889D01*
X0026117Y0019700D01*
X0026428Y0019700D01*
X0026967Y0020239D01*
X0027005Y0020200D01*
X0028705Y0020200D01*
X0029305Y0019600D01*
X0031128Y0019600D01*
X0032417Y0020889D01*
X0032417Y0022711D01*
X0031128Y0024000D01*
X0029428Y0024000D01*
X0028828Y0024600D01*
X0027005Y0024600D01*
X0028877Y0024551D02*
X0063155Y0024551D01*
X0065079Y0024551D02*
X0065755Y0024551D01*
X0067879Y0024551D02*
X0077617Y0024551D01*
X0077617Y0025149D02*
X0068477Y0025149D01*
X0069017Y0025748D02*
X0077617Y0025748D01*
X0077617Y0026346D02*
X0077162Y0026346D01*
X0077302Y0026405D02*
X0077617Y0026719D01*
X0077617Y0023381D01*
X0077302Y0023695D01*
X0075722Y0024350D01*
X0074011Y0024350D01*
X0072431Y0023695D01*
X0071221Y0022486D01*
X0070567Y0020905D01*
X0070567Y0019195D01*
X0071221Y0017614D01*
X0072431Y0016405D01*
X0074011Y0015750D01*
X0075722Y0015750D01*
X0077302Y0016405D01*
X0077617Y0016719D01*
X0077617Y0013381D01*
X0077302Y0013695D01*
X0075722Y0014350D01*
X0074011Y0014350D01*
X0072431Y0013695D01*
X0071221Y0012486D01*
X0070567Y0010905D01*
X0070567Y0009195D01*
X0071221Y0007614D01*
X0071536Y0007300D01*
X0018198Y0007300D01*
X0018512Y0007614D01*
X0019167Y0009195D01*
X0019167Y0010905D01*
X0018512Y0012486D01*
X0017302Y0013695D01*
X0015722Y0014350D01*
X0014011Y0014350D01*
X0012431Y0013695D01*
X0012117Y0013381D01*
X0012117Y0016719D01*
X0012431Y0016405D01*
X0014011Y0015750D01*
X0015722Y0015750D01*
X0017302Y0016405D01*
X0018512Y0017614D01*
X0019167Y0019195D01*
X0019167Y0020905D01*
X0018512Y0022486D01*
X0017302Y0023695D01*
X0015722Y0024350D01*
X0014011Y0024350D01*
X0012431Y0023695D01*
X0012117Y0023381D01*
X0012117Y0026719D01*
X0012431Y0026405D01*
X0014011Y0025750D01*
X0015722Y0025750D01*
X0017302Y0026405D01*
X0018512Y0027614D01*
X0019167Y0029195D01*
X0019167Y0030905D01*
X0018512Y0032486D01*
X0017302Y0033695D01*
X0015722Y0034350D01*
X0014011Y0034350D01*
X0012431Y0033695D01*
X0012117Y0033381D01*
X0012117Y0046719D01*
X0012431Y0046405D01*
X0014011Y0045750D01*
X0015722Y0045750D01*
X0017302Y0046405D01*
X0018512Y0047614D01*
X0019167Y0049195D01*
X0019167Y0050905D01*
X0018512Y0052486D01*
X0018198Y0052800D01*
X0071536Y0052800D01*
X0071221Y0052486D01*
X0070567Y0050905D01*
X0070567Y0049195D01*
X0071221Y0047614D01*
X0072431Y0046405D01*
X0074011Y0045750D01*
X0075722Y0045750D01*
X0077302Y0046405D01*
X0077617Y0046719D01*
X0077617Y0043381D01*
X0077302Y0043695D01*
X0075722Y0044350D01*
X0074011Y0044350D01*
X0072431Y0043695D01*
X0071221Y0042486D01*
X0070567Y0040905D01*
X0070567Y0039195D01*
X0071221Y0037614D01*
X0071536Y0037300D01*
X0071305Y0037300D01*
X0070017Y0036011D01*
X0070017Y0034189D01*
X0071305Y0032900D01*
X0071636Y0032900D01*
X0071221Y0032486D01*
X0070567Y0030905D01*
X0070567Y0029195D01*
X0071221Y0027614D01*
X0072431Y0026405D01*
X0074011Y0025750D01*
X0075722Y0025750D01*
X0077302Y0026405D01*
X0077617Y0023952D02*
X0076682Y0023952D01*
X0073051Y0023952D02*
X0031176Y0023952D01*
X0031774Y0023354D02*
X0072089Y0023354D01*
X0071491Y0022755D02*
X0032373Y0022755D01*
X0032417Y0022157D02*
X0071085Y0022157D01*
X0070837Y0021558D02*
X0032417Y0021558D01*
X0032417Y0020960D02*
X0070589Y0020960D01*
X0070567Y0020361D02*
X0031889Y0020361D01*
X0031291Y0019763D02*
X0070567Y0019763D01*
X0070579Y0019164D02*
X0026117Y0019164D01*
X0026117Y0018566D02*
X0070827Y0018566D01*
X0071075Y0017967D02*
X0026117Y0017967D01*
X0025597Y0017369D02*
X0071467Y0017369D01*
X0072065Y0016770D02*
X0025617Y0016770D01*
X0025617Y0016172D02*
X0053177Y0016172D01*
X0053305Y0016300D02*
X0052017Y0015011D01*
X0052017Y0013189D01*
X0053305Y0011900D01*
X0055128Y0011900D01*
X0056417Y0013189D01*
X0056417Y0015011D01*
X0055128Y0016300D01*
X0053305Y0016300D01*
X0052579Y0015573D02*
X0025617Y0015573D01*
X0025103Y0014975D02*
X0052017Y0014975D01*
X0052017Y0014376D02*
X0024504Y0014376D01*
X0025805Y0014300D02*
X0024517Y0013011D01*
X0024028Y0013500D01*
X0022205Y0013500D01*
X0020917Y0012211D01*
X0020917Y0010389D01*
X0022205Y0009100D01*
X0024028Y0009100D01*
X0025317Y0010389D01*
X0025805Y0009900D01*
X0027628Y0009900D01*
X0027917Y0010189D01*
X0028605Y0009500D01*
X0030428Y0009500D01*
X0031717Y0010789D01*
X0031717Y0012611D01*
X0030428Y0013900D01*
X0028605Y0013900D01*
X0028317Y0013611D01*
X0027628Y0014300D01*
X0025805Y0014300D01*
X0025283Y0013778D02*
X0017104Y0013778D01*
X0017819Y0013179D02*
X0021885Y0013179D01*
X0021286Y0012581D02*
X0018417Y0012581D01*
X0018721Y0011982D02*
X0020917Y0011982D01*
X0020917Y0011384D02*
X0018969Y0011384D01*
X0019167Y0010785D02*
X0020917Y0010785D01*
X0021119Y0010187D02*
X0019167Y0010187D01*
X0019167Y0009588D02*
X0021717Y0009588D01*
X0019082Y0008990D02*
X0038916Y0008990D01*
X0039305Y0008600D02*
X0041128Y0008600D01*
X0042417Y0009889D01*
X0042417Y0011711D01*
X0041128Y0013000D01*
X0039305Y0013000D01*
X0038017Y0011711D01*
X0038017Y0009889D01*
X0039305Y0008600D01*
X0038317Y0009588D02*
X0030516Y0009588D01*
X0031115Y0010187D02*
X0038017Y0010187D01*
X0038017Y0010785D02*
X0031713Y0010785D01*
X0031717Y0011384D02*
X0038017Y0011384D01*
X0038288Y0011982D02*
X0031717Y0011982D01*
X0031717Y0012581D02*
X0038886Y0012581D01*
X0041547Y0012581D02*
X0052625Y0012581D01*
X0052026Y0013179D02*
X0031149Y0013179D01*
X0030550Y0013778D02*
X0052017Y0013778D01*
X0053223Y0011982D02*
X0042146Y0011982D01*
X0042417Y0011384D02*
X0057489Y0011384D01*
X0057417Y0011311D02*
X0057417Y0009489D01*
X0058705Y0008200D01*
X0060528Y0008200D01*
X0061817Y0009489D01*
X0061817Y0011311D01*
X0060528Y0012600D01*
X0058705Y0012600D01*
X0057417Y0011311D01*
X0057417Y0010785D02*
X0042417Y0010785D01*
X0042417Y0010187D02*
X0057417Y0010187D01*
X0057417Y0009588D02*
X0042116Y0009588D01*
X0041518Y0008990D02*
X0057916Y0008990D01*
X0058514Y0008391D02*
X0018834Y0008391D01*
X0018586Y0007793D02*
X0071147Y0007793D01*
X0070900Y0008391D02*
X0060719Y0008391D01*
X0061318Y0008990D02*
X0070652Y0008990D01*
X0070567Y0009588D02*
X0061817Y0009588D01*
X0061817Y0010187D02*
X0070567Y0010187D01*
X0070567Y0010785D02*
X0061817Y0010785D01*
X0061744Y0011384D02*
X0070765Y0011384D01*
X0071013Y0011982D02*
X0061146Y0011982D01*
X0060547Y0012581D02*
X0071316Y0012581D01*
X0071915Y0013179D02*
X0056407Y0013179D01*
X0056417Y0013778D02*
X0072630Y0013778D01*
X0072993Y0016172D02*
X0055256Y0016172D01*
X0055855Y0015573D02*
X0077617Y0015573D01*
X0077617Y0014975D02*
X0056417Y0014975D01*
X0056417Y0014376D02*
X0077617Y0014376D01*
X0077617Y0013778D02*
X0077104Y0013778D01*
X0076740Y0016172D02*
X0077617Y0016172D01*
X0072571Y0026346D02*
X0069017Y0026346D01*
X0069017Y0026945D02*
X0071891Y0026945D01*
X0071292Y0027543D02*
X0068984Y0027543D01*
X0068386Y0028142D02*
X0071003Y0028142D01*
X0070755Y0028740D02*
X0067787Y0028740D01*
X0065846Y0028740D02*
X0065187Y0028740D01*
X0059889Y0029339D02*
X0070567Y0029339D01*
X0070567Y0029937D02*
X0055017Y0029937D01*
X0055017Y0029339D02*
X0057544Y0029339D01*
X0056946Y0028740D02*
X0054968Y0028740D01*
X0055017Y0028789D02*
X0053728Y0027500D01*
X0051905Y0027500D01*
X0050617Y0028789D01*
X0050617Y0030611D01*
X0051905Y0031900D01*
X0053728Y0031900D01*
X0055017Y0030611D01*
X0055017Y0028789D01*
X0054370Y0028142D02*
X0056517Y0028142D01*
X0056517Y0027543D02*
X0053771Y0027543D01*
X0051862Y0027543D02*
X0018441Y0027543D01*
X0018731Y0028142D02*
X0051263Y0028142D01*
X0050665Y0028740D02*
X0018978Y0028740D01*
X0019167Y0029339D02*
X0050617Y0029339D01*
X0050617Y0029937D02*
X0019167Y0029937D01*
X0019167Y0030536D02*
X0020769Y0030536D01*
X0020905Y0030400D02*
X0022728Y0030400D01*
X0024017Y0031689D01*
X0024017Y0033511D01*
X0022728Y0034800D01*
X0020905Y0034800D01*
X0019617Y0033511D01*
X0019617Y0031689D01*
X0020905Y0030400D01*
X0020171Y0031134D02*
X0019072Y0031134D01*
X0018824Y0031733D02*
X0019617Y0031733D01*
X0019617Y0032332D02*
X0018576Y0032332D01*
X0018068Y0032930D02*
X0019617Y0032930D01*
X0019634Y0033529D02*
X0017469Y0033529D01*
X0016260Y0034127D02*
X0020232Y0034127D01*
X0020831Y0034726D02*
X0012117Y0034726D01*
X0012117Y0035324D02*
X0023217Y0035324D01*
X0023217Y0035289D02*
X0024505Y0034000D01*
X0026328Y0034000D01*
X0027617Y0035289D01*
X0027617Y0037111D01*
X0026328Y0038400D01*
X0024505Y0038400D01*
X0023217Y0037111D01*
X0023217Y0035289D01*
X0023217Y0035923D02*
X0012117Y0035923D01*
X0012117Y0036521D02*
X0023217Y0036521D01*
X0023225Y0037120D02*
X0012117Y0037120D01*
X0012117Y0037718D02*
X0023824Y0037718D01*
X0024422Y0038317D02*
X0012117Y0038317D01*
X0012117Y0038915D02*
X0022990Y0038915D01*
X0023305Y0038600D02*
X0025128Y0038600D01*
X0026417Y0039889D01*
X0026417Y0040000D01*
X0031705Y0040000D01*
X0031217Y0039511D01*
X0031217Y0037689D01*
X0032505Y0036400D01*
X0034328Y0036400D01*
X0035617Y0037689D01*
X0035617Y0039511D01*
X0034328Y0040800D01*
X0034317Y0040800D01*
X0034317Y0049131D01*
X0033848Y0049600D01*
X0025481Y0049600D01*
X0025128Y0049953D01*
X0023305Y0049953D01*
X0022017Y0048664D01*
X0022017Y0046841D01*
X0023305Y0045553D01*
X0024917Y0045553D01*
X0024917Y0043000D01*
X0023305Y0043000D01*
X0022017Y0041711D01*
X0022017Y0039889D01*
X0023305Y0038600D01*
X0022392Y0039514D02*
X0012117Y0039514D01*
X0012117Y0040112D02*
X0022017Y0040112D01*
X0022017Y0040711D02*
X0012117Y0040711D01*
X0012117Y0041309D02*
X0022017Y0041309D01*
X0022213Y0041908D02*
X0012117Y0041908D01*
X0012117Y0042506D02*
X0022812Y0042506D01*
X0024917Y0043105D02*
X0012117Y0043105D01*
X0012117Y0043703D02*
X0024917Y0043703D01*
X0024917Y0044302D02*
X0012117Y0044302D01*
X0012117Y0044900D02*
X0024917Y0044900D01*
X0024917Y0045499D02*
X0012117Y0045499D01*
X0012117Y0046097D02*
X0013173Y0046097D01*
X0012140Y0046696D02*
X0012117Y0046696D01*
X0016560Y0046097D02*
X0022761Y0046097D01*
X0022162Y0046696D02*
X0017594Y0046696D01*
X0018192Y0047294D02*
X0022017Y0047294D01*
X0022017Y0047893D02*
X0018627Y0047893D01*
X0018875Y0048491D02*
X0022017Y0048491D01*
X0022442Y0049090D02*
X0019123Y0049090D01*
X0019167Y0049688D02*
X0023041Y0049688D01*
X0025392Y0049688D02*
X0070567Y0049688D01*
X0070567Y0050287D02*
X0019167Y0050287D01*
X0019167Y0050885D02*
X0070567Y0050885D01*
X0070806Y0051484D02*
X0018927Y0051484D01*
X0018679Y0052082D02*
X0071054Y0052082D01*
X0071416Y0052681D02*
X0018317Y0052681D01*
X0034317Y0049090D02*
X0070610Y0049090D01*
X0070858Y0048491D02*
X0034317Y0048491D01*
X0034317Y0047893D02*
X0071106Y0047893D01*
X0071541Y0047294D02*
X0034317Y0047294D01*
X0034317Y0046696D02*
X0072140Y0046696D01*
X0073173Y0046097D02*
X0034317Y0046097D01*
X0034317Y0045499D02*
X0077617Y0045499D01*
X0077617Y0046097D02*
X0076560Y0046097D01*
X0077594Y0046696D02*
X0077617Y0046696D01*
X0077617Y0044900D02*
X0043928Y0044900D01*
X0043428Y0045400D02*
X0041605Y0045400D01*
X0040317Y0044111D01*
X0040317Y0042289D01*
X0041605Y0041000D01*
X0042717Y0041000D01*
X0042717Y0040089D01*
X0044005Y0038800D01*
X0045828Y0038800D01*
X0047117Y0040089D01*
X0047117Y0041911D01*
X0045828Y0043200D01*
X0044717Y0043200D01*
X0044717Y0044111D01*
X0043428Y0045400D01*
X0044526Y0044302D02*
X0073895Y0044302D01*
X0072450Y0043703D02*
X0044717Y0043703D01*
X0045923Y0043105D02*
X0071840Y0043105D01*
X0071242Y0042506D02*
X0046522Y0042506D01*
X0047117Y0041908D02*
X0070982Y0041908D01*
X0070734Y0041309D02*
X0047117Y0041309D01*
X0047117Y0040711D02*
X0070567Y0040711D01*
X0070567Y0040112D02*
X0047117Y0040112D01*
X0046542Y0039514D02*
X0057819Y0039514D01*
X0058105Y0039800D02*
X0056817Y0038511D01*
X0056817Y0036689D01*
X0058105Y0035400D01*
X0059928Y0035400D01*
X0061217Y0036689D01*
X0061217Y0038511D01*
X0059928Y0039800D01*
X0058105Y0039800D01*
X0057221Y0038915D02*
X0045943Y0038915D01*
X0043890Y0038915D02*
X0035617Y0038915D01*
X0035617Y0038317D02*
X0056817Y0038317D01*
X0056817Y0037718D02*
X0035617Y0037718D01*
X0035048Y0037120D02*
X0056817Y0037120D01*
X0056984Y0036521D02*
X0034449Y0036521D01*
X0032384Y0036521D02*
X0027617Y0036521D01*
X0027617Y0035923D02*
X0057583Y0035923D01*
X0060451Y0035923D02*
X0070017Y0035923D01*
X0070017Y0035324D02*
X0027617Y0035324D01*
X0027053Y0034726D02*
X0070017Y0034726D01*
X0070078Y0034127D02*
X0026455Y0034127D01*
X0024378Y0034127D02*
X0023401Y0034127D01*
X0023780Y0034726D02*
X0022802Y0034726D01*
X0023999Y0033529D02*
X0070677Y0033529D01*
X0071275Y0032930D02*
X0024017Y0032930D01*
X0024017Y0032332D02*
X0071157Y0032332D01*
X0070910Y0031733D02*
X0053895Y0031733D01*
X0054493Y0031134D02*
X0070662Y0031134D01*
X0070567Y0030536D02*
X0055017Y0030536D01*
X0051738Y0031733D02*
X0024017Y0031733D01*
X0023462Y0031134D02*
X0051140Y0031134D01*
X0050617Y0030536D02*
X0022864Y0030536D01*
X0017843Y0026945D02*
X0056517Y0026945D01*
X0056659Y0026346D02*
X0017162Y0026346D01*
X0016682Y0023952D02*
X0024458Y0023952D01*
X0023859Y0023354D02*
X0017644Y0023354D01*
X0018242Y0022755D02*
X0023317Y0022755D01*
X0023317Y0022157D02*
X0018648Y0022157D01*
X0018896Y0021558D02*
X0023317Y0021558D01*
X0022965Y0020960D02*
X0019144Y0020960D01*
X0019167Y0020361D02*
X0022367Y0020361D01*
X0021768Y0019763D02*
X0019167Y0019763D01*
X0019154Y0019164D02*
X0021717Y0019164D01*
X0021717Y0018566D02*
X0018906Y0018566D01*
X0018658Y0017967D02*
X0021717Y0017967D01*
X0021274Y0017369D02*
X0018267Y0017369D01*
X0017668Y0016770D02*
X0021217Y0016770D01*
X0021217Y0016172D02*
X0016740Y0016172D01*
X0012993Y0016172D02*
X0012117Y0016172D01*
X0012117Y0015573D02*
X0021217Y0015573D01*
X0021731Y0014975D02*
X0012117Y0014975D01*
X0012117Y0014376D02*
X0022329Y0014376D01*
X0024349Y0013179D02*
X0024685Y0013179D01*
X0024517Y0013011D02*
X0024517Y0013011D01*
X0025317Y0010389D02*
X0025317Y0010389D01*
X0025115Y0010187D02*
X0025519Y0010187D01*
X0024516Y0009588D02*
X0028517Y0009588D01*
X0027919Y0010187D02*
X0027915Y0010187D01*
X0028150Y0013778D02*
X0028483Y0013778D01*
X0029143Y0019763D02*
X0026491Y0019763D01*
X0013051Y0023952D02*
X0012117Y0023952D01*
X0012117Y0025748D02*
X0057257Y0025748D01*
X0061049Y0036521D02*
X0070526Y0036521D01*
X0071125Y0037120D02*
X0061217Y0037120D01*
X0061217Y0037718D02*
X0071178Y0037718D01*
X0070930Y0038317D02*
X0061217Y0038317D01*
X0060813Y0038915D02*
X0070682Y0038915D01*
X0070567Y0039514D02*
X0060214Y0039514D01*
X0075838Y0044302D02*
X0077617Y0044302D01*
X0077617Y0043703D02*
X0077283Y0043703D01*
X0043292Y0039514D02*
X0035614Y0039514D01*
X0035016Y0040112D02*
X0042717Y0040112D01*
X0042717Y0040711D02*
X0034417Y0040711D01*
X0034317Y0041309D02*
X0041296Y0041309D01*
X0040698Y0041908D02*
X0034317Y0041908D01*
X0034317Y0042506D02*
X0040317Y0042506D01*
X0040317Y0043105D02*
X0034317Y0043105D01*
X0034317Y0043703D02*
X0040317Y0043703D01*
X0040507Y0044302D02*
X0034317Y0044302D01*
X0034317Y0044900D02*
X0041106Y0044900D01*
X0031219Y0039514D02*
X0026042Y0039514D01*
X0025443Y0038915D02*
X0031217Y0038915D01*
X0031217Y0038317D02*
X0026411Y0038317D01*
X0027010Y0037718D02*
X0031217Y0037718D01*
X0031786Y0037120D02*
X0027608Y0037120D01*
X0013473Y0034127D02*
X0012117Y0034127D01*
X0012117Y0033529D02*
X0012264Y0033529D01*
X0012117Y0026346D02*
X0012571Y0026346D01*
X0012630Y0013778D02*
X0012117Y0013778D01*
X0055210Y0011982D02*
X0058088Y0011982D01*
X0058686Y0012581D02*
X0055809Y0012581D01*
D13*
X0052917Y0016600D02*
X0052817Y0016700D01*
X0050717Y0016600D01*
X0042817Y0020100D02*
X0042917Y0021400D01*
X0042717Y0021900D01*
X0057617Y0022800D02*
X0057717Y0022700D01*
X0057617Y0022800D02*
X0058817Y0024700D01*
X0057917Y0030300D02*
X0060717Y0030300D01*
X0060817Y0030400D01*
X0047217Y0039200D02*
X0047117Y0039200D01*
X0047017Y0039100D01*
X0035717Y0042400D02*
X0035617Y0042300D01*
X0026317Y0043900D02*
X0026217Y0043800D01*
X0024217Y0043800D01*
X0036217Y0050000D02*
X0036217Y0052400D01*
X0036217Y0050000D02*
X0036317Y0049900D01*
X0027717Y0029900D02*
X0027817Y0029300D01*
X0030117Y0007900D02*
X0032417Y0007500D01*
X0032517Y0007400D01*
X0064917Y0014500D02*
X0065717Y0013700D01*
X0065917Y0013700D01*
M02*
