G75*
%MOIN*%
%OFA0B0*%
%FSLAX25Y25*%
%IPPOS*%
%LPD*%
%AMOC8*
5,1,8,0,0,1.08239X$1,22.5*
%
%ADD10C,0.00500*%
%ADD11C,0.01000*%
D10*
X0019264Y0007000D02*
X0019715Y0006550D01*
X0020165Y0006550D01*
X0020616Y0007000D01*
X0020616Y0007901D01*
X0021066Y0008352D01*
X0021516Y0008352D01*
X0021967Y0007901D01*
X0021967Y0007000D01*
X0021516Y0006550D01*
X0019264Y0007000D02*
X0019264Y0007901D01*
X0019715Y0008352D01*
X0019264Y0009497D02*
X0019264Y0010848D01*
X0019715Y0011298D01*
X0021516Y0011298D01*
X0021967Y0010848D01*
X0021967Y0009497D01*
X0019264Y0009497D01*
X0020165Y0012443D02*
X0019264Y0013344D01*
X0020165Y0014245D01*
X0021967Y0014245D01*
X0020616Y0014245D02*
X0020616Y0012443D01*
X0020165Y0012443D02*
X0021967Y0012443D01*
X0024937Y0013257D02*
X0024939Y0013287D01*
X0024945Y0013317D01*
X0024954Y0013346D01*
X0024967Y0013373D01*
X0024984Y0013398D01*
X0025003Y0013421D01*
X0025026Y0013442D01*
X0025051Y0013459D01*
X0025077Y0013473D01*
X0025106Y0013483D01*
X0025135Y0013490D01*
X0025165Y0013493D01*
X0025196Y0013492D01*
X0025226Y0013487D01*
X0025255Y0013478D01*
X0025282Y0013466D01*
X0025308Y0013451D01*
X0025332Y0013432D01*
X0025353Y0013410D01*
X0025371Y0013386D01*
X0025386Y0013359D01*
X0025397Y0013331D01*
X0025405Y0013302D01*
X0025409Y0013272D01*
X0025409Y0013242D01*
X0025405Y0013212D01*
X0025397Y0013183D01*
X0025386Y0013155D01*
X0025371Y0013128D01*
X0025353Y0013104D01*
X0025332Y0013082D01*
X0025308Y0013063D01*
X0025282Y0013048D01*
X0025255Y0013036D01*
X0025226Y0013027D01*
X0025196Y0013022D01*
X0025165Y0013021D01*
X0025135Y0013024D01*
X0025106Y0013031D01*
X0025077Y0013041D01*
X0025051Y0013055D01*
X0025026Y0013072D01*
X0025003Y0013093D01*
X0024984Y0013116D01*
X0024967Y0013141D01*
X0024954Y0013168D01*
X0024945Y0013197D01*
X0024939Y0013227D01*
X0024937Y0013257D01*
X0025252Y0013335D02*
X0025252Y0020265D01*
X0032181Y0020265D01*
X0032181Y0013335D01*
X0025252Y0013335D01*
X0021967Y0016500D02*
X0021516Y0016050D01*
X0021967Y0016500D02*
X0021967Y0017401D01*
X0021516Y0017852D01*
X0021066Y0017852D01*
X0020616Y0017401D01*
X0020616Y0016500D01*
X0020165Y0016050D01*
X0019715Y0016050D01*
X0019264Y0016500D01*
X0019264Y0017401D01*
X0019715Y0017852D01*
X0019715Y0018997D02*
X0019264Y0019447D01*
X0019264Y0020348D01*
X0019715Y0020798D01*
X0019264Y0021943D02*
X0021967Y0021943D01*
X0021967Y0023745D01*
X0024736Y0023538D02*
X0024736Y0028262D01*
X0027098Y0028262D01*
X0027098Y0023538D01*
X0024736Y0023538D01*
X0021967Y0020348D02*
X0021516Y0020798D01*
X0021967Y0020348D02*
X0021967Y0019447D01*
X0021516Y0018997D01*
X0019715Y0018997D01*
X0024736Y0030338D02*
X0024736Y0035062D01*
X0027098Y0035062D01*
X0027098Y0030338D01*
X0024736Y0030338D01*
X0021516Y0036050D02*
X0021967Y0036500D01*
X0021967Y0037401D01*
X0021516Y0037852D01*
X0021066Y0037852D01*
X0020616Y0037401D01*
X0020616Y0036951D01*
X0020616Y0037401D02*
X0020165Y0037852D01*
X0019715Y0037852D01*
X0019264Y0037401D01*
X0019264Y0036500D01*
X0019715Y0036050D01*
X0019264Y0038997D02*
X0021066Y0038997D01*
X0021967Y0039897D01*
X0021066Y0040798D01*
X0019264Y0040798D01*
X0019715Y0041943D02*
X0019264Y0042393D01*
X0019264Y0043294D01*
X0019715Y0043745D01*
X0020165Y0043745D01*
X0020616Y0043294D01*
X0021066Y0043745D01*
X0021516Y0043745D01*
X0021967Y0043294D01*
X0021967Y0042393D01*
X0021516Y0041943D01*
X0020616Y0042844D02*
X0020616Y0043294D01*
X0021516Y0045750D02*
X0019715Y0045750D01*
X0019264Y0046200D01*
X0019264Y0047101D01*
X0019715Y0047552D01*
X0020616Y0047552D02*
X0020616Y0046651D01*
X0020616Y0047552D02*
X0021516Y0047552D01*
X0021967Y0047101D01*
X0021967Y0046200D01*
X0021516Y0045750D01*
X0021967Y0048697D02*
X0019264Y0048697D01*
X0021967Y0050498D01*
X0019264Y0050498D01*
X0019264Y0051643D02*
X0019264Y0052994D01*
X0019715Y0053445D01*
X0021516Y0053445D01*
X0021967Y0052994D01*
X0021967Y0051643D01*
X0019264Y0051643D01*
X0025089Y0048934D02*
X0025091Y0048973D01*
X0025097Y0049012D01*
X0025107Y0049050D01*
X0025120Y0049087D01*
X0025137Y0049122D01*
X0025157Y0049156D01*
X0025181Y0049187D01*
X0025208Y0049216D01*
X0025237Y0049242D01*
X0025269Y0049265D01*
X0025303Y0049285D01*
X0025339Y0049301D01*
X0025376Y0049313D01*
X0025415Y0049322D01*
X0025454Y0049327D01*
X0025493Y0049328D01*
X0025532Y0049325D01*
X0025571Y0049318D01*
X0025608Y0049307D01*
X0025645Y0049293D01*
X0025680Y0049275D01*
X0025713Y0049254D01*
X0025744Y0049229D01*
X0025772Y0049202D01*
X0025797Y0049172D01*
X0025819Y0049139D01*
X0025838Y0049105D01*
X0025853Y0049069D01*
X0025865Y0049031D01*
X0025873Y0048993D01*
X0025877Y0048954D01*
X0025877Y0048914D01*
X0025873Y0048875D01*
X0025865Y0048837D01*
X0025853Y0048799D01*
X0025838Y0048763D01*
X0025819Y0048729D01*
X0025797Y0048696D01*
X0025772Y0048666D01*
X0025744Y0048639D01*
X0025713Y0048614D01*
X0025680Y0048593D01*
X0025645Y0048575D01*
X0025608Y0048561D01*
X0025571Y0048550D01*
X0025532Y0048543D01*
X0025493Y0048540D01*
X0025454Y0048541D01*
X0025415Y0048546D01*
X0025376Y0048555D01*
X0025339Y0048567D01*
X0025303Y0048583D01*
X0025269Y0048603D01*
X0025237Y0048626D01*
X0025208Y0048652D01*
X0025181Y0048681D01*
X0025157Y0048712D01*
X0025137Y0048746D01*
X0025120Y0048781D01*
X0025107Y0048818D01*
X0025097Y0048856D01*
X0025091Y0048895D01*
X0025089Y0048934D01*
X0025680Y0048737D02*
X0025680Y0040863D01*
X0033554Y0040863D01*
X0033554Y0048737D01*
X0025680Y0048737D01*
X0038567Y0034971D02*
X0038569Y0035010D01*
X0038575Y0035049D01*
X0038585Y0035087D01*
X0038598Y0035124D01*
X0038615Y0035159D01*
X0038635Y0035193D01*
X0038659Y0035224D01*
X0038686Y0035253D01*
X0038715Y0035279D01*
X0038747Y0035302D01*
X0038781Y0035322D01*
X0038817Y0035338D01*
X0038854Y0035350D01*
X0038893Y0035359D01*
X0038932Y0035364D01*
X0038971Y0035365D01*
X0039010Y0035362D01*
X0039049Y0035355D01*
X0039086Y0035344D01*
X0039123Y0035330D01*
X0039158Y0035312D01*
X0039191Y0035291D01*
X0039222Y0035266D01*
X0039250Y0035239D01*
X0039275Y0035209D01*
X0039297Y0035176D01*
X0039316Y0035142D01*
X0039331Y0035106D01*
X0039343Y0035068D01*
X0039351Y0035030D01*
X0039355Y0034991D01*
X0039355Y0034951D01*
X0039351Y0034912D01*
X0039343Y0034874D01*
X0039331Y0034836D01*
X0039316Y0034800D01*
X0039297Y0034766D01*
X0039275Y0034733D01*
X0039250Y0034703D01*
X0039222Y0034676D01*
X0039191Y0034651D01*
X0039158Y0034630D01*
X0039123Y0034612D01*
X0039086Y0034598D01*
X0039049Y0034587D01*
X0039010Y0034580D01*
X0038971Y0034577D01*
X0038932Y0034578D01*
X0038893Y0034583D01*
X0038854Y0034592D01*
X0038817Y0034604D01*
X0038781Y0034620D01*
X0038747Y0034640D01*
X0038715Y0034663D01*
X0038686Y0034689D01*
X0038659Y0034718D01*
X0038635Y0034749D01*
X0038615Y0034783D01*
X0038598Y0034818D01*
X0038585Y0034855D01*
X0038575Y0034893D01*
X0038569Y0034932D01*
X0038567Y0034971D01*
X0038961Y0034971D02*
X0038961Y0025129D01*
X0050772Y0025129D01*
X0050772Y0034971D01*
X0038961Y0034971D01*
X0049841Y0036250D02*
X0051643Y0036250D01*
X0052788Y0036250D02*
X0052788Y0038952D01*
X0054139Y0038952D01*
X0054589Y0038502D01*
X0054589Y0037601D01*
X0054139Y0037151D01*
X0052788Y0037151D01*
X0049841Y0036250D02*
X0049841Y0038952D01*
X0049841Y0041050D02*
X0051643Y0041050D01*
X0052788Y0041050D02*
X0053688Y0041050D01*
X0053238Y0041050D02*
X0053238Y0043752D01*
X0052788Y0043752D02*
X0053688Y0043752D01*
X0054752Y0043302D02*
X0054752Y0042852D01*
X0055202Y0042401D01*
X0056103Y0042401D01*
X0056553Y0041951D01*
X0056553Y0041500D01*
X0056103Y0041050D01*
X0055202Y0041050D01*
X0054752Y0041500D01*
X0054752Y0043302D02*
X0055202Y0043752D01*
X0056103Y0043752D01*
X0056553Y0043302D01*
X0057698Y0043302D02*
X0058149Y0043752D01*
X0059050Y0043752D01*
X0059500Y0043302D01*
X0059500Y0042852D01*
X0057698Y0041050D01*
X0059500Y0041050D01*
X0060645Y0041050D02*
X0060645Y0043752D01*
X0061546Y0042852D01*
X0062446Y0043752D01*
X0062446Y0041050D01*
X0063591Y0041050D02*
X0064943Y0041050D01*
X0065393Y0041500D01*
X0065393Y0043302D01*
X0064943Y0043752D01*
X0063591Y0043752D01*
X0063591Y0041050D01*
X0066538Y0041050D02*
X0068340Y0041050D01*
X0066538Y0041050D02*
X0066538Y0043752D01*
X0065925Y0045850D02*
X0065024Y0045850D01*
X0064574Y0046300D01*
X0065925Y0045850D02*
X0066375Y0046300D01*
X0066375Y0046751D01*
X0065925Y0047201D01*
X0065024Y0047201D01*
X0064574Y0047652D01*
X0064574Y0048102D01*
X0065024Y0048552D01*
X0065925Y0048552D01*
X0066375Y0048102D01*
X0067520Y0048552D02*
X0068421Y0047652D01*
X0069322Y0048552D01*
X0069322Y0045850D01*
X0067520Y0045850D02*
X0067520Y0048552D01*
X0066948Y0050650D02*
X0066047Y0050650D01*
X0066497Y0050650D02*
X0066497Y0053352D01*
X0066047Y0053352D01*
X0064902Y0052001D02*
X0064902Y0050650D01*
X0063551Y0050650D01*
X0063100Y0051100D01*
X0063551Y0051551D01*
X0064902Y0051551D01*
X0064902Y0052001D02*
X0064452Y0052452D01*
X0063551Y0052452D01*
X0061996Y0052452D02*
X0061546Y0052452D01*
X0060645Y0051551D01*
X0060645Y0050650D02*
X0060645Y0052452D01*
X0059581Y0052452D02*
X0058681Y0052452D01*
X0059131Y0052902D02*
X0059131Y0051100D01*
X0059581Y0050650D01*
X0057536Y0050650D02*
X0057536Y0053352D01*
X0055734Y0053352D02*
X0057536Y0050650D01*
X0055734Y0050650D02*
X0055734Y0053352D01*
X0054589Y0053352D02*
X0052788Y0053352D01*
X0052788Y0050650D01*
X0054589Y0050650D01*
X0053688Y0052001D02*
X0052788Y0052001D01*
X0051643Y0051551D02*
X0051643Y0051100D01*
X0051192Y0050650D01*
X0050291Y0050650D01*
X0049841Y0051100D01*
X0050291Y0052001D02*
X0051192Y0052001D01*
X0051643Y0051551D01*
X0050291Y0052001D02*
X0049841Y0052452D01*
X0049841Y0052902D01*
X0050291Y0053352D01*
X0051192Y0053352D01*
X0051643Y0052902D01*
X0053238Y0048552D02*
X0052788Y0048102D01*
X0052788Y0047652D01*
X0053238Y0047201D01*
X0054139Y0047201D01*
X0054589Y0046751D01*
X0054589Y0046300D01*
X0054139Y0045850D01*
X0053238Y0045850D01*
X0052788Y0046300D01*
X0051643Y0045850D02*
X0049841Y0045850D01*
X0049841Y0048552D01*
X0053238Y0048552D02*
X0054139Y0048552D01*
X0054589Y0048102D01*
X0055734Y0048552D02*
X0056635Y0047652D01*
X0057536Y0048552D01*
X0057536Y0045850D01*
X0058681Y0046300D02*
X0059131Y0045850D01*
X0060032Y0045850D01*
X0060482Y0046300D01*
X0060482Y0046751D01*
X0060032Y0047201D01*
X0058681Y0047201D01*
X0058681Y0046300D01*
X0058681Y0047201D02*
X0059581Y0048102D01*
X0060482Y0048552D01*
X0061627Y0048552D02*
X0062978Y0048552D01*
X0063429Y0048102D01*
X0063429Y0046300D01*
X0062978Y0045850D01*
X0061627Y0045850D01*
X0061627Y0048552D01*
X0055734Y0048552D02*
X0055734Y0045850D01*
X0049841Y0043752D02*
X0049841Y0041050D01*
X0055734Y0038502D02*
X0055734Y0038052D01*
X0056184Y0037601D01*
X0057085Y0037601D01*
X0057536Y0037151D01*
X0057536Y0036700D01*
X0057085Y0036250D01*
X0056184Y0036250D01*
X0055734Y0036700D01*
X0055734Y0038502D02*
X0056184Y0038952D01*
X0057085Y0038952D01*
X0057536Y0038502D01*
X0058681Y0038502D02*
X0059131Y0038952D01*
X0060032Y0038952D01*
X0060482Y0038502D01*
X0060482Y0038052D01*
X0058681Y0036250D01*
X0060482Y0036250D01*
X0061627Y0036250D02*
X0063429Y0038052D01*
X0063429Y0038502D01*
X0062978Y0038952D01*
X0062077Y0038952D01*
X0061627Y0038502D01*
X0061627Y0036250D02*
X0063429Y0036250D01*
X0063561Y0035837D02*
X0063561Y0029144D01*
X0064939Y0027963D01*
X0069073Y0027963D01*
X0069073Y0035837D01*
X0063561Y0035837D01*
X0064574Y0036250D02*
X0064574Y0038952D01*
X0064574Y0037601D02*
X0066375Y0037601D01*
X0066375Y0038952D02*
X0066375Y0036250D01*
X0067520Y0036250D02*
X0068871Y0036250D01*
X0069322Y0036700D01*
X0069322Y0038502D01*
X0068871Y0038952D01*
X0067520Y0038952D01*
X0067520Y0036250D01*
X0063554Y0019537D02*
X0055680Y0019537D01*
X0055680Y0011663D01*
X0063554Y0011663D01*
X0063554Y0019537D01*
X0058042Y0016781D02*
X0058044Y0016820D01*
X0058050Y0016859D01*
X0058060Y0016897D01*
X0058073Y0016934D01*
X0058090Y0016969D01*
X0058110Y0017003D01*
X0058134Y0017034D01*
X0058161Y0017063D01*
X0058190Y0017089D01*
X0058222Y0017112D01*
X0058256Y0017132D01*
X0058292Y0017148D01*
X0058329Y0017160D01*
X0058368Y0017169D01*
X0058407Y0017174D01*
X0058446Y0017175D01*
X0058485Y0017172D01*
X0058524Y0017165D01*
X0058561Y0017154D01*
X0058598Y0017140D01*
X0058633Y0017122D01*
X0058666Y0017101D01*
X0058697Y0017076D01*
X0058725Y0017049D01*
X0058750Y0017019D01*
X0058772Y0016986D01*
X0058791Y0016952D01*
X0058806Y0016916D01*
X0058818Y0016878D01*
X0058826Y0016840D01*
X0058830Y0016801D01*
X0058830Y0016761D01*
X0058826Y0016722D01*
X0058818Y0016684D01*
X0058806Y0016646D01*
X0058791Y0016610D01*
X0058772Y0016576D01*
X0058750Y0016543D01*
X0058725Y0016513D01*
X0058697Y0016486D01*
X0058666Y0016461D01*
X0058633Y0016440D01*
X0058598Y0016422D01*
X0058561Y0016408D01*
X0058524Y0016397D01*
X0058485Y0016390D01*
X0058446Y0016387D01*
X0058407Y0016388D01*
X0058368Y0016393D01*
X0058329Y0016402D01*
X0058292Y0016414D01*
X0058256Y0016430D01*
X0058222Y0016450D01*
X0058190Y0016473D01*
X0058161Y0016499D01*
X0058134Y0016528D01*
X0058110Y0016559D01*
X0058090Y0016593D01*
X0058073Y0016628D01*
X0058060Y0016665D01*
X0058050Y0016703D01*
X0058044Y0016742D01*
X0058042Y0016781D01*
X0054068Y0011852D02*
X0052267Y0009150D01*
X0054068Y0009150D02*
X0052267Y0011852D01*
X0067364Y0011703D02*
X0067364Y0013505D01*
X0067364Y0012604D02*
X0070067Y0012604D01*
X0070067Y0010559D02*
X0067364Y0010559D01*
X0067364Y0008757D02*
X0070067Y0010559D01*
X0070067Y0008757D02*
X0067364Y0008757D01*
X0067364Y0007693D02*
X0067364Y0006793D01*
X0067364Y0007243D02*
X0070067Y0007243D01*
X0070067Y0006793D02*
X0070067Y0007693D01*
D11*
X0056717Y0007700D02*
X0055317Y0006800D01*
X0055317Y0008700D01*
X0056717Y0007700D01*
X0041217Y0007700D01*
M02*
